<svg width="40" height="40" viewBox="0 0 40 40" fill="none" xmlns="http://www.w3.org/2000/svg">
<path d="M39.8688 18.0441V18.0533L39.8614 17.9822C39.8087 17.5295 39.4321 14.9659 37.4941 11.6455L37.4646 11.578L37.4106 11.5045C36.4883 9.95031 35.2273 8.24039 33.5026 6.51336L33.5002 6.51219V6.51094L33.4941 6.50602C30.6225 3.63328 27.794 2.03992 25.6597 1.16898C24.5912 0.732891 23.6971 0.477187 23.0543 0.3275C22.7318 0.253906 22.4741 0.206094 22.2877 0.176016C22.1945 0.160703 22.1196 0.150859 22.0632 0.143516L21.9934 0.135547L21.9553 0.131172L20.5827 0L16.6441 14.4103L12.5398 18.5145L12.1534 18.9003L1.85344 29.2007C0.619531 30.4335 0 32.0588 0 33.6736C0 35.2884 0.620703 36.9137 1.85344 38.1465C3.08617 39.3792 4.71148 40.0005 6.3257 39.9993C7.94117 40.0005 9.56648 39.3798 10.7992 38.1465L21.1003 27.8459L21.4855 27.4595L25.5897 23.3559L40 19.4173L39.8688 18.0441ZM9.25359 36.6022C9.05125 36.8046 8.83289 36.9812 8.60352 37.1321C8.37406 37.2841 8.13367 37.4105 7.88469 37.5111C7.38672 37.7129 6.85805 37.8128 6.32563 37.8141C5.68781 37.8128 5.05359 37.6656 4.47219 37.3743C4.44891 37.3626 4.42438 37.3528 4.40109 37.3405C4.30539 37.2915 4.21336 37.2338 4.12141 37.1762C4.09688 37.1609 4.07234 37.1479 4.04789 37.132C3.81844 36.9811 3.60133 36.8045 3.39773 36.6015C3.19531 36.3991 3.01875 36.1808 2.86664 35.952C2.76359 35.7944 2.67531 35.6295 2.59555 35.4626C2.3257 34.8989 2.18711 34.2887 2.18586 33.6729C2.18711 33.1418 2.28766 32.613 2.48883 32.1151C2.58945 31.8667 2.71578 31.6257 2.86664 31.3957C3.01875 31.167 3.19539 30.9486 3.39773 30.7462L13.3125 20.8316L19.1684 26.6874L9.25359 36.6022ZM19.9412 25.9146L14.0853 20.0587L18.1111 16.0336L23.9658 21.8889L19.9412 25.9146ZM24.9004 21.2793L18.7207 15.0996L22.1969 2.37953C22.3625 2.41141 22.5747 2.45867 22.8212 2.52125C22.8433 2.5268 22.8641 2.53172 22.8862 2.53781C23.0003 2.56781 23.1242 2.60156 23.253 2.63961C23.2714 2.64453 23.2873 2.6482 23.3045 2.6543C23.6063 2.74258 23.9448 2.85422 24.3165 2.99164C24.3349 2.99898 24.3557 3.00695 24.3753 3.01375C24.5384 3.07633 24.709 3.14258 24.8844 3.21492C24.9199 3.22961 24.958 3.24555 24.9948 3.26148C25.1591 3.33023 25.3272 3.40383 25.5002 3.48289C25.5443 3.50187 25.5872 3.52273 25.6302 3.54305C25.8055 3.62453 25.9859 3.71164 26.1686 3.80367C26.1956 3.81781 26.2238 3.83125 26.2508 3.84539L24.2145 8.03734C24.0833 8.30906 24.1961 8.63531 24.4684 8.76781C24.7395 8.89906 25.0658 8.78625 25.1983 8.51508L27.2123 4.36852C27.313 4.42797 27.4172 4.49 27.5202 4.55188C27.6502 4.63039 27.7802 4.71195 27.9127 4.79602C28.0403 4.87633 28.1654 4.95664 28.2942 5.04195C28.3887 5.10516 28.4843 5.17133 28.58 5.23695C28.6891 5.3118 28.7983 5.38844 28.9088 5.46695C29.0081 5.53938 29.1099 5.61172 29.2105 5.68648C29.3233 5.76992 29.4386 5.85828 29.5527 5.94539C29.6495 6.02023 29.7465 6.0932 29.8445 6.17164C30.0384 6.32555 30.2346 6.48633 30.4309 6.65313C30.5253 6.73289 30.621 6.81875 30.7166 6.90211C30.838 7.00883 30.9595 7.11555 31.0809 7.22656C31.1827 7.31922 31.2857 7.41484 31.3876 7.51172C31.4416 7.56141 31.4943 7.61414 31.5482 7.665L29.9916 9.17133C29.7745 9.38047 29.7696 9.72695 29.9794 9.94352C30.1891 10.1606 30.5338 10.1662 30.7521 9.95641L32.3222 8.43656C32.3443 8.45992 32.3676 8.4832 32.3897 8.50523C32.4964 8.61812 32.5994 8.72914 32.7024 8.8407C32.7638 8.9075 32.8239 8.97445 32.884 9.04125C32.9834 9.15227 33.0827 9.26266 33.1784 9.37313C33.2348 9.43875 33.2887 9.50375 33.344 9.56875C33.5132 9.76859 33.6764 9.96617 33.8321 10.163C33.8886 10.2336 33.9463 10.3048 34.0015 10.3752C34.0701 10.4654 34.1363 10.5537 34.2027 10.6432C34.2701 10.7327 34.3375 10.8211 34.4025 10.9106C34.4627 10.9922 34.5203 11.0737 34.578 11.1559C34.6466 11.2528 34.7154 11.3498 34.7804 11.4455C34.8307 11.5191 34.881 11.5927 34.9288 11.665C35.0024 11.7741 35.0723 11.8833 35.1423 11.9912C35.1802 12.0502 35.2195 12.109 35.2563 12.168C35.2637 12.1789 35.2698 12.1906 35.2772 12.2017L28.5553 16.0422C28.2941 16.1925 28.202 16.5255 28.3517 16.7873C28.5014 17.0498 28.835 17.1406 29.0975 16.9909L35.8316 13.1437C35.8488 13.1743 35.8672 13.2063 35.8843 13.2375C35.9174 13.2976 35.9469 13.3552 35.9788 13.4147C36.0486 13.5441 36.1162 13.6735 36.1799 13.8005C36.2094 13.8557 36.2363 13.9109 36.2634 13.9666C36.3271 14.0973 36.3897 14.2261 36.4498 14.3524C36.4695 14.3966 36.489 14.4389 36.5087 14.4818C36.5724 14.6198 36.6325 14.7548 36.6877 14.886C36.7012 14.9166 36.7148 14.9461 36.727 14.9762C37.0041 15.6343 37.2053 16.2194 37.3488 16.7057C37.485 17.1687 37.5684 17.5392 37.6199 17.8029L24.9004 21.2793Z" fill="#FF9999"/>
</svg>
